<svg width="500" height="500" viewBox="0 0 500 500" xmlns="http://www.w3.org/2000/svg">
  <rect width="500" height="500" fill="#1CA6A6"/>
  <circle cx="250" cy="230" r="150" fill="#8FD0D0" opacity="0.6"/>
  <rect x="100" y="200" width="200" height="120" rx="10" fill="#F4C542"/>
  <rect x="110" y="210" width="80" height="20" fill="#8B1C2E"/>
  <rect x="150" y="250" width="220" height="120" rx="10" fill="#8B1C2E"/>
  <rect x="240" y="230" width="40" height="30" fill="#4A0F1A"/>
  <rect x="180" y="300" width="20" height="20" fill="#ccc"/>
  <rect x="320" y="300" width="20" height="20" fill="#ccc"/>
  <rect x="250" y="150" width="180" height="200" fill="#eee"/>
  <rect x="260" y="170" width="60" height="60" fill="#1CA6A6"/>
  <rect x="330" y="170" width="80" height="10" fill="#bbb"/>
  <rect x="330" y="190" width="80" height="10" fill="#bbb"/>
  <circle cx="340" cy="250" r="30" fill="#ddd"/>
  <path d="M340 250 L340 220 A30 30 0 0 1 370 250 Z" fill="#8B1C2E"/>
  <rect x="380" y="260" width="20" height="100" rx="5" fill="#FF4D4D"/>
  <polygon points="380,360 400,360 390,390" fill="#333"/>
  <text x="250" y="450" text-anchor="middle" font-size="28" fill="#ffffff" font-family="Arial">
    PORTFOLIO
  </text>
</svg>
